<svg xmlns="http://www.w3.org/2000/svg" viewBox="0 0 446.48 38.47"><defs><style>.cls-1{fill:#67bdea;}.cls-2{fill:#bb2026;}.cls-3{fill:#252627;opacity:0.7;}</style></defs><title>logo-light</title><g id="Name"><path class="cls-1" d="M57.85,5.36c6.39,0,11.43,2.38,11.43,9.45a8.47,8.47,0,0,1-4.63,8c4.63.81,7.92,3.37,7.92,9.36S68.11,42.48,60.42,42.48H46.33V5.36ZM55.47,19.89c3.64,0,5.62-1.12,5.62-4.23,0-2.65-1.93-3.78-5.62-3.78h-.68v8Zm2,16.06c4,0,6.21-1.21,6.21-4.14,0-3.42-2.21-4.63-6.21-4.63H54.79V36Z" transform="translate(-4.1 -4.68)"/><path class="cls-1" d="M76.3,19.4h8v3.32h.09s2.52-4,7.06-4a9.56,9.56,0,0,1,5,1.44l-3.33,6.75A6.71,6.71,0,0,0,89,25.65c-4.14,0-4.72,4.09-4.72,4.68V42.48h-8Z" transform="translate(-4.1 -4.68)"/><path class="cls-1" d="M107.53,9.86a4.73,4.73,0,1,1-4.72-4.73A4.72,4.72,0,0,1,107.53,9.86ZM98.71,42.48h8V19.4h-8Z" transform="translate(-4.1 -4.68)"/><path class="cls-1" d="M122.11,18.72a10.47,10.47,0,0,1,7.56,2.88V19.4h8V42.48h-7.87V39.87h-.09a10.22,10.22,0,0,1-7.56,3.28c-6.75,0-11.47-5.44-11.47-12.19S115.36,18.72,122.11,18.72Zm2.39,17.64a5.19,5.19,0,0,0,5.35-5.4,5.38,5.38,0,1,0-10.75,0A5.15,5.15,0,0,0,124.5,36.36Z" transform="translate(-4.1 -4.68)"/><path class="cls-1" d="M143,19.4h8v2.42h.09a9.56,9.56,0,0,1,6.62-3.1c4.23,0,10.12,2.11,10.12,8.55V42.48h-8v-13a4.27,4.27,0,0,0-4.14-4.5,4.91,4.91,0,0,0-4.73,4.5v13h-8Z" transform="translate(-4.1 -4.68)"/><path class="cls-1" d="M202.12,4.68c10.3,0,18.67,8.37,18.67,19.21s-8,19.26-18.67,19.26c-11,0-18.72-8.41-18.72-19.26A18.9,18.9,0,0,1,202.12,4.68Zm0,30.28c6.75,0,9.54-5.53,9.54-11.07s-3-11.06-9.54-11.06-9.59,5.53-9.59,11.06S195.19,35,202.12,35Z" transform="translate(-4.1 -4.68)"/><path class="cls-1" d="M233.89,9.41c0,4.9-3.55,8.9-6.84,11.65l-2.11-1.66a11.72,11.72,0,0,0,3.1-5.76,4.43,4.43,0,0,1-3.51-4.23,4.68,4.68,0,1,1,9.36,0Z" transform="translate(-4.1 -4.68)"/><path class="cls-1" d="M248.38,5.36A18.38,18.38,0,0,1,267.1,23.89a18.37,18.37,0,0,1-18.72,18.59H237.62V5.36Zm-1,29.56c6.25,0,10.53-4.77,10.57-11s-4.27-11-10.57-11h-1.31v22Z" transform="translate(-4.1 -4.68)"/><path class="cls-1" d="M283.07,18.72c7.65,0,13.77,5,13.77,12.24S291,43.15,283.07,43.15c-8.32,0-13.9-5.08-13.9-12.19S275.29,18.72,283.07,18.72Zm0,17.64a5.19,5.19,0,0,0,5.35-5.4,5.38,5.38,0,1,0-10.75,0A5.15,5.15,0,0,0,283,36.36Z" transform="translate(-4.1 -4.68)"/><path class="cls-1" d="M300.49,19.4h8v2.42h.08a9.56,9.56,0,0,1,6.62-3.1c4.23,0,10.12,2.11,10.12,8.55V42.48h-8v-13a4.27,4.27,0,0,0-4.14-4.5,4.9,4.9,0,0,0-4.72,4.5v13h-8Z" transform="translate(-4.1 -4.68)"/><path class="cls-1" d="M330.23,19.4h8v2.42h.09a9.54,9.54,0,0,1,6.61-3.1c4.23,0,10.13,2.11,10.13,8.55V42.48h-8v-13a4.26,4.26,0,0,0-4.14-4.5,4.91,4.91,0,0,0-4.72,4.5v13h-8Z" transform="translate(-4.1 -4.68)"/><path class="cls-1" d="M366.59,32c0,3.55,3,4.77,5,4.77,2.56,0,3.69-.5,5.62-2.57L383,37.12c-2.61,4.37-6.84,6-12,6A12.49,12.49,0,0,1,358.31,31,12.5,12.5,0,0,1,371,18.72c7,0,12.38,4.14,12.38,12.24a7.53,7.53,0,0,1-.05,1.08Zm9-4.41a4.1,4.1,0,0,0-4.36-3.74c-2.75,0-4.28,1.62-4.41,3.74Z" transform="translate(-4.1 -4.68)"/><path class="cls-1" d="M387,5.33h8V42.48h-8Z" transform="translate(-4.1 -4.68)"/><path class="cls-1" d="M400.39,5.33h8V42.48h-8Z" transform="translate(-4.1 -4.68)"/></g><g id="Closing_Bracket" data-name="Closing Bracket"><polygon class="cls-2" points="414.25 13.07 414.25 0.73 446.48 13.07 446.48 25.41 414.25 13.07"/><polygon class="cls-3" points="446.48 13.07 427.18 18.02 434.26 20.73 446.48 13.07"/><polygon class="cls-1" points="446.48 25.41 446.48 13.07 414.25 25.41 414.25 37.75 446.48 25.41"/></g><g id="Opening_Bracket" data-name="Opening Bracket"><polygon class="cls-2" points="32.23 25.38 32.23 37.72 0 25.38 0 13.04 32.23 25.38"/><polygon class="cls-3" points="0 25.38 19.3 20.43 12.22 17.73 0 25.38"/><polygon class="cls-1" points="0 13.04 0 25.38 32.23 13.04 32.23 0.7 0 13.04"/></g></svg>